<?xml version="1.0" encoding="utf-8"?>
<!-- Generator: Adobe Illustrator 27.0.1, SVG Export Plug-In . SVG Version: 6.00 Build 0)  -->
<svg version="1.1" id="Layer_1" xmlns="http://www.w3.org/2000/svg" xmlns:xlink="http://www.w3.org/1999/xlink" x="0px" y="0px"
	 viewBox="0 0 1920 1080" style="enable-background:new 0 0 1920 1080;" xml:space="preserve">
<style type="text/css">
	.st0{display:none;fill:#FFFFFF;}
	.st1{fill:#CCD0D3;}
	.st2{clip-path:url(#SVGID_00000062906143755696173740000007474712378205800086_);}
	.st3{fill:none;stroke:#CCD0D3;stroke-width:0.75;stroke-miterlimit:10;}
	.st4{opacity:0.45;fill:#0E398E;}
	.st5{fill:#66E0E3;}
	.st6{clip-path:url(#SVGID_00000110449173566469652570000006666474838888841880_);}
	.st7{fill:#3D67C1;}
	.st8{clip-path:url(#SVGID_00000057135162849200857210000006063173934617925776_);}
	.st9{fill:#87C9F4;}
	.st10{clip-path:url(#SVGID_00000078006078014164728320000002783615109433584039_);}
	.st11{fill:#009BFB;}
	.st12{fill:none;stroke:#FFFFFF;stroke-width:3;stroke-miterlimit:10;}
	.st13{fill:#FFFFFF;}
	.st14{fill:#EFEFEF;}
	.st15{font-family:'Roboto-Bold';}
	.st16{font-size:33.081px;}
</style>
<image style="overflow:visible;" width="1920" height="1080" xlink:href="56F10FFD.jpg" >
</image>
<rect x="3.3" y="2.9" class="st0" width="1916.7" height="1077.1"/>
<g>
	<g>
		<path class="st1" d="M1644.3,129.6c31.7,0,57.4,25.8,57.4,57.4s-25.8,57.4-57.4,57.4h-265.6c-15.2,0-29.6-5.7-40.7-16
			c-11.2-10.4-17.6-24.4-18.1-39.3c-0.6-15.8,5.1-30.7,16.1-42c10.9-11.3,25.6-17.6,41.3-17.6H1644.3 M1644.3,128.8h-267
			c-32.8,0-59.3,27.2-58.2,60.3c1.1,31.5,28,56.1,59.6,56.1h265.6c32.1,0,58.2-26.1,58.2-58.2
			C1702.5,154.9,1676.4,128.8,1644.3,128.8L1644.3,128.8z"/>
	</g>
	<g>
		<defs>
			<path id="SVGID_1_" d="M1319.1,189.1c1.1,31.5,28,56.1,59.6,56.1h265.6c32.1,0,58.2-26.1,58.2-58.2l0,0
				c0-32.1-26.1-58.2-58.2-58.2h-267C1344.5,128.8,1318,156,1319.1,189.1z"/>
		</defs>
		<clipPath id="SVGID_00000063594119860117310450000008855619857014721726_">
			<use xlink:href="#SVGID_1_"  style="overflow:visible;"/>
		</clipPath>
		<g style="clip-path:url(#SVGID_00000063594119860117310450000008855619857014721726_);">
			<g>
				<g>
					<line class="st3" x1="1516.5" y1="99.7" x2="1473.2" y2="274.3"/>
					<line class="st3" x1="1548.4" y1="99.7" x2="1505.1" y2="274.3"/>
					<line class="st3" x1="1580.4" y1="99.7" x2="1537" y2="274.3"/>
					<line class="st3" x1="1612.3" y1="99.7" x2="1568.9" y2="274.3"/>
					<line class="st3" x1="1644.2" y1="99.7" x2="1600.8" y2="274.3"/>
					<line class="st3" x1="1676.1" y1="99.7" x2="1632.8" y2="274.3"/>
					<line class="st3" x1="1676.1" y1="99.7" x2="1632.8" y2="274.3"/>
					<line class="st3" x1="1708" y1="99.7" x2="1664.7" y2="274.3"/>
					<line class="st3" x1="1356.9" y1="99.7" x2="1313.6" y2="274.3"/>
					<line class="st3" x1="1388.8" y1="99.7" x2="1345.5" y2="274.3"/>
					<line class="st3" x1="1420.8" y1="99.7" x2="1377.4" y2="274.3"/>
					<line class="st3" x1="1356.9" y1="99.7" x2="1313.6" y2="274.3"/>
					<line class="st3" x1="1452.7" y1="99.7" x2="1409.3" y2="274.3"/>
					<line class="st3" x1="1484.6" y1="99.7" x2="1441.2" y2="274.3"/>
				</g>
			</g>
		</g>
	</g>
</g>
<path class="st4" d="M1319.1,159.2c1.1,31.5,28,56.1,59.6,56.1h265.6c32.1,0,58.2-26.1,58.2-58.2v0c0-32.1-26.1-58.2-58.2-58.2h-267
	C1344.5,98.8,1318,126.1,1319.1,159.2z"/>
<g>
	<path class="st5" d="M1319.1,159.2c-1.2-33.1,25.3-60.3,58.2-60.3h0V38.3c-65.6,0-118.8,53.2-118.8,118.8
		c0,65.6,53.2,118.8,118.8,118.8v-60.6C1346.4,214.5,1320.2,190.2,1319.1,159.2z"/>
	<path class="st5" d="M1377.3,98.8V38.3h54.8c16.7,0,30.3,13.6,30.3,30.3l0,0c0,16.7-13.6,30.3-30.3,30.3H1377.3z"/>
</g>
<g>
	<g>
		<path class="st1" d="M1644.3,390.2c31.7,0,57.4,25.8,57.4,57.4s-25.8,57.4-57.4,57.4h-265.6c-15.2,0-29.6-5.7-40.7-16
			c-11.2-10.4-17.6-24.4-18.1-39.3c-0.6-15.8,5.1-30.7,16.1-42c10.9-11.3,25.6-17.6,41.3-17.6H1644.3 M1644.3,389.5h-267
			c-32.8,0-59.3,27.2-58.2,60.3c1.1,31.5,28,56.1,59.6,56.1h265.6c32.1,0,58.2-26.1,58.2-58.2
			C1702.5,415.5,1676.4,389.5,1644.3,389.5L1644.3,389.5z"/>
	</g>
	<g>
		<defs>
			<path id="SVGID_00000031904542228198050190000015153917161883888304_" d="M1319.1,449.8c1.1,31.5,28,56.1,59.6,56.1h265.6
				c32.1,0,58.2-26.1,58.2-58.2l0,0c0-32.1-26.1-58.2-58.2-58.2h-267C1344.5,389.5,1318,416.7,1319.1,449.8z"/>
		</defs>
		<clipPath id="SVGID_00000017476880846450610610000005777966923382072246_">
			<use xlink:href="#SVGID_00000031904542228198050190000015153917161883888304_"  style="overflow:visible;"/>
		</clipPath>
		<g style="clip-path:url(#SVGID_00000017476880846450610610000005777966923382072246_);">
			<g>
				<g>
					<line class="st3" x1="1516.5" y1="360.4" x2="1473.2" y2="534.9"/>
					<line class="st3" x1="1548.4" y1="360.4" x2="1505.1" y2="534.9"/>
					<line class="st3" x1="1580.4" y1="360.4" x2="1537" y2="534.9"/>
					<line class="st3" x1="1612.3" y1="360.4" x2="1568.9" y2="534.9"/>
					<line class="st3" x1="1644.2" y1="360.4" x2="1600.8" y2="534.9"/>
					<line class="st3" x1="1676.1" y1="360.4" x2="1632.8" y2="534.9"/>
					<line class="st3" x1="1676.1" y1="360.4" x2="1632.8" y2="534.9"/>
					<line class="st3" x1="1708" y1="360.4" x2="1664.7" y2="534.9"/>
					<line class="st3" x1="1356.9" y1="360.4" x2="1313.6" y2="534.9"/>
					<line class="st3" x1="1388.8" y1="360.4" x2="1345.5" y2="534.9"/>
					<line class="st3" x1="1420.8" y1="360.4" x2="1377.4" y2="534.9"/>
					<line class="st3" x1="1356.9" y1="360.4" x2="1313.6" y2="534.9"/>
					<line class="st3" x1="1452.7" y1="360.4" x2="1409.3" y2="534.9"/>
					<line class="st3" x1="1484.6" y1="360.4" x2="1441.2" y2="534.9"/>
				</g>
			</g>
		</g>
	</g>
</g>
<path class="st4" d="M1319.1,419.8c1.1,31.5,28,56.1,59.6,56.1h265.6c32.1,0,58.2-26.1,58.2-58.2v0c0-32.1-26.1-58.2-58.2-58.2h-267
	C1344.5,359.5,1318,386.7,1319.1,419.8z"/>
<g>
	<path class="st7" d="M1319.1,419.8c-1.2-33.1,25.3-60.3,58.2-60.3h0v-60.6c-65.6,0-118.8,53.2-118.8,118.8
		c0,65.6,53.2,118.8,118.8,118.8v-60.6C1346.4,475.1,1320.2,450.9,1319.1,419.8z"/>
	<path class="st7" d="M1377.3,359.5v-60.6h54.8c16.7,0,30.3,13.6,30.3,30.3l0,0c0,16.7-13.6,30.3-30.3,30.3H1377.3z"/>
</g>
<g>
	<g>
		<path class="st1" d="M1657.1,655.9c31.7,0,57.4,25.8,57.4,57.4s-25.8,57.4-57.4,57.4h-265.6c-15.2,0-29.6-5.7-40.7-16
			c-11.2-10.4-17.6-24.4-18.1-39.3c-0.6-15.8,5.1-30.7,16.1-42c10.9-11.3,25.6-17.6,41.3-17.6H1657.1 M1657.1,655.2h-267
			c-32.8,0-59.3,27.2-58.2,60.3c1.1,31.5,28,56.1,59.6,56.1h265.6c32.1,0,58.2-26.1,58.2-58.2S1689.3,655.2,1657.1,655.2
			L1657.1,655.2z"/>
	</g>
	<g>
		<defs>
			<path id="SVGID_00000163776065936313914730000001272879157136303242_" d="M1332,715.5c1.1,31.5,28,56.1,59.6,56.1h265.6
				c32.1,0,58.2-26.1,58.2-58.2l0,0c0-32.1-26.1-58.2-58.2-58.2h-267C1357.3,655.2,1330.8,682.4,1332,715.5z"/>
		</defs>
		<clipPath id="SVGID_00000081613274609290954170000011942553098028426880_">
			<use xlink:href="#SVGID_00000163776065936313914730000001272879157136303242_"  style="overflow:visible;"/>
		</clipPath>
		<g style="clip-path:url(#SVGID_00000081613274609290954170000011942553098028426880_);">
			<g>
				<g>
					<line class="st3" x1="1529.4" y1="626.1" x2="1486" y2="800.7"/>
					<line class="st3" x1="1561.3" y1="626.1" x2="1517.9" y2="800.7"/>
					<line class="st3" x1="1593.2" y1="626.1" x2="1549.8" y2="800.7"/>
					<line class="st3" x1="1625.1" y1="626.1" x2="1581.7" y2="800.7"/>
					<line class="st3" x1="1657" y1="626.1" x2="1613.7" y2="800.7"/>
					<line class="st3" x1="1688.9" y1="626.1" x2="1645.6" y2="800.7"/>
					<line class="st3" x1="1688.9" y1="626.1" x2="1645.6" y2="800.7"/>
					<line class="st3" x1="1720.9" y1="626.1" x2="1677.5" y2="800.7"/>
					<line class="st3" x1="1369.8" y1="626.1" x2="1326.4" y2="800.7"/>
					<line class="st3" x1="1401.7" y1="626.1" x2="1358.3" y2="800.7"/>
					<line class="st3" x1="1433.6" y1="626.1" x2="1390.2" y2="800.7"/>
					<line class="st3" x1="1369.8" y1="626.1" x2="1326.4" y2="800.7"/>
					<line class="st3" x1="1465.5" y1="626.1" x2="1422.2" y2="800.7"/>
					<line class="st3" x1="1497.4" y1="626.1" x2="1454.1" y2="800.7"/>
				</g>
			</g>
		</g>
	</g>
</g>
<path class="st4" d="M1332,685.6c1.1,31.5,28,56.1,59.6,56.1h265.6c32.1,0,58.2-26.1,58.2-58.2v0c0-32.1-26.1-58.2-58.2-58.2h-267
	C1357.3,625.2,1330.8,652.4,1332,685.6z"/>
<g>
	<path class="st9" d="M1332,685.6c-1.2-33.1,25.3-60.3,58.2-60.3l0,0v-60.6c-65.6,0-118.8,53.2-118.8,118.8
		c0,65.6,53.2,118.8,118.8,118.8v-60.6C1359.2,740.9,1333.1,716.6,1332,685.6z"/>
	<path class="st9" d="M1390.1,625.2v-60.6h54.8c16.7,0,30.3,13.6,30.3,30.3l0,0c0,16.7-13.6,30.3-30.3,30.3H1390.1z"/>
</g>
<g>
	<g>
		<path class="st1" d="M1644.3,914.6c31.7,0,57.4,25.8,57.4,57.4c0,31.7-25.8,57.4-57.4,57.4h-265.6c-15.2,0-29.6-5.7-40.7-16
			c-11.2-10.4-17.6-24.4-18.1-39.3c-0.6-15.8,5.1-30.7,16.1-42c10.9-11.3,25.6-17.6,41.3-17.6H1644.3 M1644.3,913.9h-267
			c-32.8,0-59.3,27.2-58.2,60.3c1.1,31.5,28,56.1,59.6,56.1h265.6c32.1,0,58.2-26.1,58.2-58.2C1702.5,940,1676.4,913.9,1644.3,913.9
			L1644.3,913.9z"/>
	</g>
	<g>
		<defs>
			<path id="SVGID_00000119797098784824176080000018008327750396442252_" d="M1319.1,974.2c1.1,31.5,28,56.1,59.6,56.1h265.6
				c32.1,0,58.2-26.1,58.2-58.2l0,0c0-32.1-26.1-58.2-58.2-58.2h-267C1344.5,913.9,1318,941.1,1319.1,974.2z"/>
		</defs>
		<clipPath id="SVGID_00000075142717958867239500000017706085083913461892_">
			<use xlink:href="#SVGID_00000119797098784824176080000018008327750396442252_"  style="overflow:visible;"/>
		</clipPath>
		<g style="clip-path:url(#SVGID_00000075142717958867239500000017706085083913461892_);">
			<g>
				<g>
					<line class="st3" x1="1516.5" y1="884.8" x2="1473.2" y2="1059.4"/>
					<line class="st3" x1="1548.4" y1="884.8" x2="1505.1" y2="1059.4"/>
					<line class="st3" x1="1580.4" y1="884.8" x2="1537" y2="1059.4"/>
					<line class="st3" x1="1612.3" y1="884.8" x2="1568.9" y2="1059.4"/>
					<line class="st3" x1="1644.2" y1="884.8" x2="1600.8" y2="1059.4"/>
					<line class="st3" x1="1676.1" y1="884.8" x2="1632.8" y2="1059.4"/>
					<line class="st3" x1="1676.1" y1="884.8" x2="1632.8" y2="1059.4"/>
					<line class="st3" x1="1708" y1="884.8" x2="1664.7" y2="1059.4"/>
					<line class="st3" x1="1356.9" y1="884.8" x2="1313.6" y2="1059.4"/>
					<line class="st3" x1="1388.8" y1="884.8" x2="1345.5" y2="1059.4"/>
					<line class="st3" x1="1420.8" y1="884.8" x2="1377.4" y2="1059.4"/>
					<line class="st3" x1="1356.9" y1="884.8" x2="1313.6" y2="1059.4"/>
					<line class="st3" x1="1452.7" y1="884.8" x2="1409.3" y2="1059.4"/>
					<line class="st3" x1="1484.6" y1="884.8" x2="1441.2" y2="1059.4"/>
				</g>
			</g>
		</g>
	</g>
</g>
<path class="st4" d="M1319.1,944.3c1.1,31.5,28,56.1,59.6,56.1h265.6c32.1,0,58.2-26.1,58.2-58.2v0c0-32.1-26.1-58.2-58.2-58.2h-267
	C1344.5,883.9,1318,911.1,1319.1,944.3z"/>
<g>
	<path class="st11" d="M1319.1,944.3c-1.2-33.1,25.3-60.3,58.2-60.3h0v-60.6c-65.6,0-118.8,53.2-118.8,118.8
		c0,65.6,53.2,118.8,118.8,118.8v-60.6C1346.4,999.6,1320.2,975.3,1319.1,944.3z"/>
	<path class="st11" d="M1377.3,883.9v-60.6h54.8c16.7,0,30.3,13.6,30.3,30.3l0,0c0,16.7-13.6,30.3-30.3,30.3H1377.3z"/>
</g>
<g>
	<g>
		<line class="st12" x1="741.6" y1="942.1" x2="1246.4" y2="942.1"/>
		<g>
			<g>
				<path class="st13" d="M1245.7,953.4c6.2,0,11.3-5.1,11.3-11.3c0-6.2-5.1-11.3-11.3-11.3c-6.2,0-11.3,5.1-11.3,11.3
					S1239.5,953.4,1245.7,953.4z"/>
				<path class="st13" d="M1245.7,954.9c-7,0-12.8-5.7-12.8-12.8s5.7-12.8,12.8-12.8c7,0,12.8,5.7,12.8,12.8
					C1258.5,949.2,1252.8,954.9,1245.7,954.9C1238.7,954.9,1252.8,954.9,1245.7,954.9z M1245.7,932.4c-5.4,0-9.8,4.4-9.8,9.8
					s4.4,9.8,9.8,9.8c5.4,0,9.8-4.4,9.8-9.8C1255.5,936.7,1251.1,932.4,1245.7,932.4C1240.3,932.4,1251.1,932.4,1245.7,932.4z"/>
			</g>
		</g>
	</g>
</g>
<g>
	<g>
		<line class="st12" x1="989.3" y1="433.8" x2="1246.4" y2="433.8"/>
		<g>
			<g>
				<path class="st13" d="M1245.7,445.1c6.2,0,11.3-5.1,11.3-11.3s-5.1-11.3-11.3-11.3c-6.2,0-11.3,5.1-11.3,11.3
					C1234.4,440,1239.5,445.1,1245.7,445.1z"/>
				<path class="st13" d="M1245.7,446.6c-7,0-12.8-5.7-12.8-12.8c0-7,5.7-12.8,12.8-12.8c7,0,12.8,5.7,12.8,12.8
					S1252.8,446.6,1245.7,446.6C1238.7,446.6,1252.8,446.6,1245.7,446.6z M1245.7,424c-5.4,0-9.8,4.4-9.8,9.8c0,5.4,4.4,9.8,9.8,9.8
					c5.4,0,9.8-4.4,9.8-9.8S1251.1,424,1245.7,424C1240.3,424,1251.1,424,1245.7,424z"/>
			</g>
		</g>
	</g>
</g>
<g>
	<text transform="matrix(1 0 0 1 1365.6475 931.7616)"><tspan x="0" y="0" class="st14 st15 st16">Sanoat xizmatlari |</tspan><tspan x="0" y="39.7" class="st14 st15 st16">Услуги (OEM)</tspan></text>
</g>
<g>
	<g>
		<polyline class="st12" points="291.7,371.1 291.7,152.6 1247.8,152.6 		"/>
		<g>
			<path class="st13" d="M1247.2,163.9c6.2,0,11.3-5.1,11.3-11.3s-5.1-11.3-11.3-11.3c-6.2,0-11.3,5.1-11.3,11.3
				S1241,163.9,1247.2,163.9z"/>
		</g>
	</g>
</g>
<g>
	<text transform="matrix(1 0 0 1 1379.1207 678.0345)"><tspan x="0" y="0" class="st14 st15 st16">Texnologlar | поиск </tspan><tspan x="0" y="39.7" class="st14 st15 st16">технологов и вакансии</tspan></text>
</g>
<g>
	<text transform="matrix(1 0 0 1 1367.1244 410.6094)"><tspan x="0" y="0" class="st14 st15 st16">Xomashyo | Сырьё </tspan><tspan x="0" y="39.7" class="st14 st15 st16">и химикаты </tspan></text>
</g>
<g>
	<g>
		<polyline class="st12" points="883.3,763.7 1015.8,763.7 1015.8,696.3 1258.8,696.3 		"/>
		<g>
			<g>
				<path class="st13" d="M1258.1,707.5c6.2,0,11.3-5.1,11.3-11.3c0-6.2-5.1-11.3-11.3-11.3s-11.3,5.1-11.3,11.3
					C1246.8,702.5,1251.9,707.5,1258.1,707.5z"/>
				<path class="st13" d="M1258.1,709c-7,0-12.8-5.7-12.8-12.8c0-7,5.7-12.8,12.8-12.8c7,0,12.8,5.7,12.8,12.8
					C1270.9,703.3,1265.2,709,1258.1,709C1251.1,709,1265.2,709,1258.1,709z M1258.1,686.5c-5.4,0-9.8,4.4-9.8,9.8
					c0,5.4,4.4,9.8,9.8,9.8c5.4,0,9.8-4.4,9.8-9.8C1267.9,690.9,1263.5,686.5,1258.1,686.5C1252.7,686.5,1263.5,686.5,1258.1,686.5z
					"/>
			</g>
		</g>
	</g>
</g>
<text transform="matrix(1 0 0 1 1368.6854 149.2678)"><tspan x="0" y="0" class="st14 st15 st16">Uskunalar bozori |</tspan><tspan x="0" y="39.7" class="st14 st15 st16">Рынок оборудования</tspan></text>
<g>
</g>
</svg>
